<?xml version="1.0" encoding="utf-8"?>
<!-- Generator: Adobe Illustrator 14.0.0, SVG Export Plug-In . SVG Version: 6.00 Build 43363)  -->
<!DOCTYPE svg PUBLIC "-//W3C//DTD SVG 1.1//EN" "http://www.w3.org/Graphics/SVG/1.1/DTD/svg11.dtd">
<svg version="1.1" id="Layer_1" xmlns="http://www.w3.org/2000/svg" xmlns:xlink="http://www.w3.org/1999/xlink" x="0px" y="0px"
	 width="310.146px" height="492.939px" viewBox="0 0 310.146 492.939" enable-background="new 0 0 310.146 492.939"
	 xml:space="preserve">
<g>
	<g>
		<g>
			<path fill="#24253E" d="M140.464,13.084C104.922-16.878,56.348,9.693,32.956,41.877c-6.873,9.456-12.375,20.284-12.039,32.224
				c0.339,12.049,7.706,23.017,15.092,31.996c17.785,21.621,39.229,39.936,62.006,56.09c43.134,30.592,91.245,53.057,136.824,79.597
				c37.993,22.123,80.796,56.389,72.25,105.951c-9.74,56.489-82.117,66.597-127.577,75.096
				c-28.431,5.316-56.309,11.085-83.879,19.912c-17.028,5.453-37.797,9.988-50.784,23.178c-1.147,1.166-2.113,2.491-2.979,3.873
				c-0.133,0.212,1.607,0.128,1.904-0.346c5.769-9.206,17.343-13.921,27.02-17.743c8.884-3.509,18.072-6.126,27.148-9.071
				c30.154-9.786,61.054-15.2,92.122-21.173c42.699-8.209,101.5-18.7,117.064-66.531c6.922-21.27,1.333-44.743-10.552-63.087
				c-11.938-18.427-30.127-32.13-48.424-43.746c-20.012-12.705-41.24-23.619-62.031-34.971
				c-24.536-13.396-49.043-26.891-72.46-42.191c-21.483-14.038-41.865-29.801-59.991-48.005
				c-17.381-17.457-38.126-39.551-27.722-65.921c8.049-20.401,26.907-37.762,45.927-47.818c21.87-11.563,47.349-11.823,66.769,4.548
				C139.038,14.071,140.743,13.319,140.464,13.084L140.464,13.084z"/>
		</g>
	</g>
	<g>
		<g>
			<path fill="#24253E" d="M0.103,445.847c6.694,9.068,14.376,17.336,21.17,26.324c5.101,6.747,10.361,14.061,17.346,18.992
				c4.909,3.466,8.376,1.422,12.213-2.401c5.999-5.977,10.183-14.092,16.799-19.404c1.024-0.822-0.556-1.345-1.255-0.783
				c-5,4.015-8.682,9.853-12.742,14.756c-2.267,2.737-4.625,5.549-7.495,7.677c-3.225,2.392-7.509-1.895-9.724-3.924
				c-5.528-5.066-10.018-11.3-14.519-17.259c-6.406-8.48-13.701-16.241-20.018-24.798C1.4,444.377-0.452,445.095,0.103,445.847
				L0.103,445.847z"/>
		</g>
	</g>
</g>
</svg>
