<?xml version="1.0" encoding="utf-8"?>
<!-- Generator: Adobe Illustrator 14.0.0, SVG Export Plug-In . SVG Version: 6.00 Build 43363)  -->
<!DOCTYPE svg PUBLIC "-//W3C//DTD SVG 1.1//EN" "http://www.w3.org/Graphics/SVG/1.1/DTD/svg11.dtd">
<svg version="1.1" id="Layer_1" xmlns="http://www.w3.org/2000/svg" xmlns:xlink="http://www.w3.org/1999/xlink" x="0px" y="0px"
	 width="30.259px" height="40px" viewBox="-4.994 -6.929 30.259 40" enable-background="new -4.994 -6.929 30.259 40"
	 xml:space="preserve">
<path fill="#FFFFFF" d="M25.234-5.243l0.031,36.919c-0.009,0.94-0.481,1.406-1.425,1.396l-8.966-0.086
	c-0.94-0.01-1.406-0.48-1.396-1.419l-0.065-13.427l-6.651-0.063l0.064,13.421c-0.009,0.941-0.484,1.404-1.426,1.395l-8.965-0.083
	c-0.941-0.011-1.406-0.483-1.398-1.424L-4.994-5.532c0.009-0.94,0.484-1.406,1.427-1.397l8.965,0.084
	c0.94,0.009,1.404,0.485,1.396,1.423L6.875,6.29l6.651,0.064l-0.081-11.71c0.006-0.938,0.48-1.405,1.424-1.396l8.968,0.087
	C24.776-6.659,25.245-6.185,25.234-5.243z"/>
</svg>
