<?xml version="1.0" encoding="utf-8"?>
<!-- Generator: Adobe Illustrator 14.0.0, SVG Export Plug-In . SVG Version: 6.00 Build 43363)  -->
<!DOCTYPE svg PUBLIC "-//W3C//DTD SVG 1.1//EN" "http://www.w3.org/Graphics/SVG/1.1/DTD/svg11.dtd">
<svg version="1.1" id="Layer_1" xmlns="http://www.w3.org/2000/svg" xmlns:xlink="http://www.w3.org/1999/xlink" x="0px" y="0px"
	 width="102.347px" height="159.257px" viewBox="7.026 -17.405 102.347 159.257"
	 enable-background="new 7.026 -17.405 102.347 159.257" xml:space="preserve">
<g>
	<g>
		<path fill="#FFFFFF" d="M39.875-14.469l0.906,72.544c0.013,1.01-0.486,1.514-1.491,1.53l-9.607,0.118
			c-1.01,0.013-1.517-0.484-1.531-1.491l-0.386-30.874l-7.125,0.09l0.387,30.878c0.013,1.006-0.485,1.514-1.492,1.527l-9.611,0.121
			c-1.006,0.013-1.515-0.485-1.528-1.491L7.491-14.065c-0.014-1.006,0.483-1.519,1.495-1.529l9.606-0.123
			c1.007-0.012,1.516,0.487,1.528,1.492l0.363,29.04l7.125-0.087l-0.362-29.04c-0.012-1.007,0.483-1.517,1.493-1.529l9.607-0.121
			C39.352-15.974,39.863-15.477,39.875-14.469z"/>
		<path fill="#FFFFFF" d="M76.404,57.632c0.157,1.005-0.269,1.516-1.273,1.525l-9.824,0.125c-0.938,0.01-1.484-0.484-1.639-1.489
			l-1.013-11.651l-6.691,0.082l-0.717,11.674c-0.135,1.008-0.667,1.52-1.6,1.529l-9.824,0.122c-1.008,0.013-1.444-0.481-1.314-1.491
			l7.188-72.647c0.133-1.009,0.7-1.52,1.711-1.532l14.249-0.176c1.01-0.014,1.589,0.482,1.748,1.49L76.404,57.632z M61.646,34.061
			L59.227,4.833l-0.862,0.009l-1.687,29.282L61.646,34.061z"/>
		<path fill="#FFFFFF" d="M98.589-16.389c1.661,0.698,3.114,1.652,4.354,2.862c1.236,1.208,2.227,2.633,2.969,4.279
			c0.739,1.647,1.118,3.409,1.141,5.277l0.057,4.103c0.01,1.007-0.451,1.659-1.381,1.959l-9.792,2.716
			c-0.935,0.297-1.401-0.056-1.416-1.065l-0.088-7.016c-0.01-0.72-0.266-1.333-0.777-1.827c-0.512-0.497-1.128-0.742-1.85-0.734
			l-0.861,0.01c-0.72,0.008-1.329,0.268-1.827,0.777c-0.494,0.513-0.741,1.127-0.731,1.845l0.128,9.825
			c0.074,0.789,0.234,1.471,0.454,2.046c0.225,0.572,0.628,1.145,1.209,1.712l14.272,10.4c1.165,0.997,1.915,2.011,2.254,3.05
			c0.335,1.042,0.586,2.207,0.743,3.501l0.231,18.565c0.028,1.875-0.314,3.641-1.012,5.305c-0.7,1.665-1.653,3.116-2.86,4.355
			c-1.211,1.236-2.636,2.231-4.281,2.967c-1.65,0.738-3.408,1.12-5.28,1.146l-4.1,0.054c-1.873,0.022-3.641-0.318-5.304-1.015
			c-1.663-0.695-3.116-1.65-4.356-2.862c-1.239-1.206-2.229-2.631-2.969-4.279c-0.738-1.647-1.118-3.407-1.141-5.277L76.24,35.924
			c-0.015-1.006,0.451-1.659,1.381-1.958l9.792-2.714c0.93-0.3,1.401,0.053,1.416,1.062l0.164,13.276
			c0.009,0.722,0.271,1.33,0.781,1.826c0.507,0.5,1.122,0.742,1.843,0.734l0.865-0.01c0.718-0.01,1.328-0.267,1.824-0.78
			c0.497-0.513,0.743-1.124,0.731-1.847l-0.175-14.247c-0.084-0.936-0.239-1.759-0.464-2.477c-0.224-0.718-0.663-1.36-1.319-1.93
			L79.022,16.35c-1.097-0.992-1.882-1.989-2.361-2.991c-0.48-1.001-0.73-2.332-0.753-3.988L75.749-3.583
			c-0.022-1.872,0.314-3.638,1.012-5.305c0.698-1.662,1.655-3.113,2.858-4.356c1.214-1.233,2.637-2.228,4.285-2.966
			c1.646-0.74,3.403-1.124,5.279-1.146l4.099-0.048C95.153-17.424,96.921-17.087,98.589-16.389z"/>
	</g>
	<g>
		<path fill="#FFFFFF" d="M29.865,65.735c1.663,0.7,3.116,1.655,4.353,2.859c1.239,1.209,2.229,2.634,2.968,4.286
			c0.743,1.646,1.126,3.4,1.148,5.273l0.049,4.106c0.014,1.006-0.447,1.661-1.379,1.961l-9.787,2.708
			c-0.933,0.301-1.406-0.053-1.419-1.063L25.71,78.85c-0.007-0.718-0.267-1.325-0.777-1.824c-0.509-0.494-1.124-0.744-1.845-0.735
			l-0.861,0.014c-0.721,0.008-1.331,0.268-1.826,0.781c-0.498,0.511-0.743,1.125-0.735,1.845l0.122,9.824
			c0.083,0.79,0.234,1.471,0.458,2.045c0.223,0.579,0.628,1.143,1.212,1.713l14.272,10.4c1.164,0.997,1.914,2.009,2.254,3.049
			c0.336,1.038,0.583,2.205,0.745,3.499l0.229,18.568c0.025,1.875-0.314,3.64-1.015,5.302c-0.696,1.665-1.651,3.119-2.86,4.355
			c-1.211,1.242-2.635,2.227-4.28,2.972c-1.646,0.735-3.406,1.119-5.277,1.145l-4.105,0.05c-1.87,0.025-3.636-0.318-5.3-1.015
			c-1.666-0.697-3.117-1.652-4.355-2.864c-1.243-1.203-2.228-2.631-2.971-4.277c-0.739-1.649-1.122-3.403-1.146-5.277L7.52,118.053
			c-0.013-1.008,0.444-1.661,1.379-1.96l9.792-2.714c0.93-0.301,1.401,0.053,1.416,1.058l0.164,13.28
			c0.01,0.72,0.27,1.326,0.779,1.827c0.51,0.494,1.125,0.738,1.844,0.729l0.862-0.01c0.72-0.008,1.329-0.265,1.824-0.776
			c0.497-0.513,0.743-1.127,0.734-1.848l-0.18-14.25c-0.083-0.932-0.237-1.762-0.462-2.476c-0.225-0.715-0.665-1.359-1.319-1.93
			L10.292,98.472c-1.091-0.996-1.878-1.992-2.358-2.993c-0.483-1.002-0.732-2.331-0.75-3.986L7.027,78.548
			c-0.025-1.872,0.315-3.642,1.015-5.301c0.697-1.668,1.652-3.121,2.861-4.357c1.207-1.237,2.634-2.229,4.283-2.97
			c1.644-0.738,3.403-1.12,5.271-1.143l4.106-0.057C26.431,64.697,28.201,65.036,29.865,65.735z"/>
		<path fill="#FFFFFF" d="M73.105,138.938c0.157,1.014-0.269,1.514-1.276,1.531l-9.822,0.126c-0.941,0.008-1.487-0.486-1.64-1.491
			l-1.013-11.649l-6.694,0.08l-0.714,11.673c-0.135,1.01-0.668,1.521-1.603,1.53l-9.824,0.125c-1.01,0.015-1.446-0.484-1.314-1.494
			l7.196-72.65c0.13-1.006,0.697-1.519,1.707-1.531l14.248-0.178c1.01-0.012,1.586,0.483,1.748,1.489L73.105,138.938z
			 M58.344,115.371l-2.42-29.23l-0.861,0.01l-1.685,29.283L58.344,115.371z"/>
		<path fill="#FFFFFF" d="M108.469,65.942l0.903,72.546c0.017,1.01-0.481,1.519-1.491,1.53l-6.909,0.085
			c-0.432,0.005-0.844-0.134-1.244-0.411c-0.402-0.284-0.674-0.604-0.821-0.965l-11.888-35.591l0.446,35.626
			c0.01,1.01-0.487,1.517-1.492,1.531l-9.608,0.124c-1.011,0.01-1.521-0.485-1.532-1.495l-0.905-72.547
			c-0.01-1.005,0.481-1.514,1.494-1.529l7.124-0.09c0.432-0.005,0.846,0.138,1.246,0.415c0.397,0.284,0.676,0.603,0.82,0.964
			l11.659,34.513l-0.433-34.55c-0.016-1.007,0.481-1.519,1.491-1.53l9.608-0.118C107.944,64.438,108.46,64.937,108.469,65.942z"/>
	</g>
</g>
</svg>
