<svg id="microscope" version="1.1" xmlns="http://www.w3.org/2000/svg" xmlns:xlink="http://www.w3.org/1999/xlink" x="0px" y="0px"
	 width="85.945px" height="120px" viewBox="-27.007 -37.709 85.945 120" enable-background="new -27.007 -37.709 85.945 120"
	 xml:space="preserve">
<g id="Layer_1">
	<g>
		<polygon fill="none" points="41.674,14.427 51.281,-1.731 46.348,-4.663 37.078,11.697 		"/>
		<polygon fill="none" points="34.073,9.905 43.338,-6.456 36.59,-10.466 26.973,5.684 		"/>
		<path fill="#B1B3C3" d="M-3.514-6.788C-4.311-5.586-4.822-4.289-5.186-2.97c-8.625,2.862-20.069,10.842-21.661,27.727
			C-28.508,42.468-16.861,52.31-8.025,56.22v15.304h-12.113v10.768h33.31V71.524H2.741V57.84H47.36V47.073H-1.827
			c-3.207-1.063-15.717-6.222-14.3-21.308C-15.078,14.618-8.313,9.873-3.541,7.888c0.967,1.472,2.234,2.784,3.796,3.816
			c6.15,4.068,14.43,2.378,18.495-3.771c0.498-0.75,0.9-1.534,1.23-2.336l0.021,0.012c0.442-1.125,0.741-2.316,0.877-3.544
			l-0.052-0.031c0.525-4.813-1.527-9.742-5.846-12.595c-4.7-3.105-10.627-2.828-14.986,0.208l-0.029-0.017
			c-0.998,0.718-1.909,1.549-2.697,2.467l0.083,0.05C-2.934-7.497-3.255-7.177-3.514-6.788z M2.647-2.714
			c0.336-0.507,0.752-0.921,1.198-1.29c0.321-0.264,0.668-0.493,1.031-0.681c0.005-0.003,0.01-0.005,0.016-0.007
			c0.352-0.185,0.726-0.329,1.106-0.439C6.017-5.137,6.04-5.142,6.056-5.147C6.429-5.25,6.811-5.314,7.197-5.342
			C7.22-5.344,7.244-5.349,7.271-5.349C7.672-5.374,8.082-5.36,8.488-5.301c0.836,0.121,1.661,0.409,2.416,0.907
			c0.58,0.383,1.049,0.863,1.448,1.389h-0.006c1.025,1.352,1.436,3.071,1.112,4.726c-0.145,0.74-0.429,1.467-0.873,2.138
			c-1.811,2.742-5.507,3.497-8.254,1.682C1.587,3.727,0.833,0.031,2.647-2.714z"/>
		<polygon fill="#B1B3C3" points="44.716,43.019 8.602,43.019 8.602,38.036 5.91,38.036 5.91,45.711 47.408,45.711 47.408,38.036 
			44.716,38.036 		"/>
	</g>
</g>
<g id="Layer_2">
	<path fill="#B1B3C3" d="M-0.034-10.37l-2.074-1.229l9.605-16.16L33.58-12.25l-9.615,16.15l-3.087-1.834
		c-0.136,1.229-0.435,2.419-0.877,3.544l22.892,13.61l2.658-4.464l5.074,3.017l8.313-13.985l-5.072-3.015l2.213-3.722L8.816-31.047
		l1.627-2.735l-6.607-3.927L-12.773-9.774l6.608,3.927l1.799-3.026l1.635,0.97C-1.943-8.821-1.032-9.652-0.034-10.37z M51.281-1.731
		l-9.607,16.158l-4.596-2.73l9.27-16.36L51.281-1.731z M43.338-6.456L34.073,9.905l-7.1-4.221l9.617-16.15L43.338-6.456z"/>
</g>
</svg>
