<?xml version="1.0" encoding="utf-8"?>
<!-- Generator: Adobe Illustrator 14.0.0, SVG Export Plug-In . SVG Version: 6.00 Build 43363)  -->
<!DOCTYPE svg PUBLIC "-//W3C//DTD SVG 1.1//EN" "http://www.w3.org/Graphics/SVG/1.1/DTD/svg11.dtd">
<svg version="1.1" id="Capa_1" xmlns="http://www.w3.org/2000/svg" xmlns:xlink="http://www.w3.org/1999/xlink" x="0px" y="0px"
	 width="14.598px" height="25px" viewBox="189.732 325.553 14.598 25" enable-background="new 189.732 325.553 14.598 25"
	 xml:space="preserve">
<g id="interface_-_arrow_bottom">
	<g>
		<path d="M191.429,350.258l12.29-11.247c0.122-0.045,0.232-0.118,0.33-0.216c0.205-0.204,0.295-0.479,0.281-0.747
			c0.014-0.266-0.076-0.536-0.281-0.741c-0.095-0.093-0.203-0.163-0.322-0.212l-12.29-11.251c-0.392-0.388-1.021-0.388-1.409,0
			c-0.388,0.388-0.388,1.018,0,1.406l11.802,10.801l-11.807,10.811c-0.387,0.388-0.387,1.018,0,1.405
			C190.416,350.65,191.044,350.65,191.429,350.258z"/>
	</g>
</g>
</svg>
