<?xml version="1.0" encoding="utf-8"?>
<!-- Generator: Adobe Illustrator 14.0.0, SVG Export Plug-In . SVG Version: 6.00 Build 43363)  -->
<!DOCTYPE svg PUBLIC "-//W3C//DTD SVG 1.1//EN" "http://www.w3.org/Graphics/SVG/1.1/DTD/svg11.dtd">
<svg version="1.1" id="Layer_1" xmlns="http://www.w3.org/2000/svg" xmlns:xlink="http://www.w3.org/1999/xlink" x="0px" y="0px"
	 width="57.354px" height="94.563px" viewBox="0 0 57.354 94.563" enable-background="new 0 0 57.354 94.563" xml:space="preserve">
<path fill="#ffffff" d="M50.511,42.554l6.362-33.62c0.761-4.016-1.86-7.896-5.845-8.649l-0.815-0.154
	c-1.938-0.368-3.907,0.047-5.546,1.166c-1.643,1.118-2.748,2.802-3.113,4.738l-4.74,25.041l-0.996,5.221L29.578,5.981
	c-0.824-4.003-4.726-6.595-8.698-5.777l-0.813,0.168c-1.931,0.397-3.592,1.522-4.677,3.169c-1.084,1.646-1.462,3.618-1.061,5.571
	l4.817,22.382c-0.206-0.019-0.412-0.028-0.621-0.028h-0.829c-3.571,0-6.557,2.548-7.236,5.92c-0.709-0.228-1.463-0.351-2.248-0.351
	h-0.83C3.312,37.035,0,40.345,0,44.417v6.352v5.568v9.514c0,0.006,0.001,0.012,0.001,0.018C0.001,65.875,0,65.88,0,65.885
	c0,15.888,15.687,28.679,28.677,28.679c15.813,0,28.676-12.864,28.676-28.679V52.096C57.353,52.012,57.254,45.314,50.511,42.554z
	 M42.026,32.064l4.74-25.043c0.104-0.544,0.42-1.02,0.887-1.339c0.469-0.318,1.025-0.438,1.568-0.334l0.816,0.153
	c1.105,0.21,1.833,1.306,1.615,2.444l-6.336,33.47c-0.125-0.019-0.252-0.031-0.383-0.031h-4.688L42.026,32.064z M19.826,6.462
	c0.303-0.461,0.771-0.777,1.313-0.889l0.813-0.167c1.104-0.228,2.189,0.512,2.424,1.646l7.066,34.333h-4.734l-7.18-33.367
	C19.414,7.477,19.521,6.925,19.826,6.462z M17.695,36.775h0.829c1.125,0,2.042,0.943,2.042,2.103v8.878c0,0.002,0,0.003,0,0.005
	v8.575c0,1.144-0.93,2.073-2.071,2.073h-0.829c-1.137,0-2.062-0.92-2.071-2.056l0.029-17.507
	C15.623,37.705,16.553,36.775,17.695,36.775z M5.31,44.417c0-1.144,0.93-2.072,2.072-2.072h0.83c1.143,0,2.072,0.929,2.072,2.072
	v3.726v8.194c0,1.144-0.93,2.073-2.072,2.073h-0.83c-1.143,0-2.072-0.931-2.072-2.073v-5.568V44.417L5.31,44.417z M52.044,65.885
	c0,12.885-10.482,23.367-23.367,23.367c-4.998,0-10.948-2.648-15.531-6.912C8.093,77.64,5.31,71.797,5.31,65.885
	c0-0.006,0-0.012,0-0.017c0-0.008,0-0.013,0-0.019v-2.429c0.658,0.191,1.352,0.298,2.072,0.298h0.83
	c1.797,0,3.445-0.647,4.727-1.719c1.282,1.07,2.93,1.719,4.727,1.719h0.829c3.566,0,6.551-2.544,7.234-5.913
	c0.094-0.271,0.147-0.563,0.147-0.865v-3.521c1.429,1.388,3.086,2.451,4.89,3.16c-1.021,0.769-1.985,1.632-2.873,2.595
	c-3.957,4.298-6.135,10.097-6.135,16.329c0,1.466,1.188,2.655,2.655,2.655c1.465,0,2.655-1.189,2.655-2.655
	c0-10.205,7.188-17.9,16.722-17.9c1.466,0,2.655-1.188,2.655-2.654c0-1.467-1.189-2.655-2.655-2.655h-7.569
	c-4.533,0-7.476-2.912-8.713-5.6h16.282c7.669,0,8.224,4.493,8.254,5.43L52.044,65.885L52.044,65.885z"/>
</svg>
