<?xml version="1.0" encoding="utf-8"?>
<!-- Generator: Adobe Illustrator 14.0.0, SVG Export Plug-In . SVG Version: 6.00 Build 43363)  -->
<!DOCTYPE svg PUBLIC "-//W3C//DTD SVG 1.1//EN" "http://www.w3.org/Graphics/SVG/1.1/DTD/svg11.dtd">
<svg version="1.1" id="Capa_1" xmlns="http://www.w3.org/2000/svg" xmlns:xlink="http://www.w3.org/1999/xlink" x="0px" y="0px"
	 width="14.598px" height="25px" viewBox="189.732 325.553 14.598 25" enable-background="new 189.732 325.553 14.598 25"
	 xml:space="preserve">
<g id="interface_-_arrow_bottom">
	<g>
		<path d="M204.041,350.267c0.387-0.388,0.387-1.018,0-1.405l-11.807-10.811l11.802-10.801c0.388-0.388,0.388-1.018,0-1.406
			s-1.017-0.388-1.409,0l-12.289,11.251c-0.119,0.049-0.228,0.119-0.322,0.212c-0.205,0.205-0.295,0.475-0.281,0.741
			c-0.014,0.269,0.076,0.543,0.281,0.747c0.098,0.098,0.208,0.171,0.33,0.216l12.289,11.247
			C203.019,350.65,203.648,350.65,204.041,350.267z"/>
	</g>
</g>
</svg>
