<?xml version="1.0" encoding="utf-8"?>
<!-- Generator: Adobe Illustrator 14.0.0, SVG Export Plug-In . SVG Version: 6.00 Build 43363)  -->
<!DOCTYPE svg PUBLIC "-//W3C//DTD SVG 1.1//EN" "http://www.w3.org/Graphics/SVG/1.1/DTD/svg11.dtd">
<svg version="1.1" id="responsive-screens" xmlns="http://www.w3.org/2000/svg" xmlns:xlink="http://www.w3.org/1999/xlink" x="0px" y="0px"
	 width="567.555px" height="511.001px" viewBox="0 0 567.555 511.001" enable-background="new 0 0 567.555 511.001"
	 xml:space="preserve">
<path fill="#242539" d="M-0.446,0h455.003c6.627,0,12,5.373,12,12v375.999c0,6.627-5.373,12-12,12H-0.446"/>
<path fill="#2A2B41" d="M-1,20h435.557c6.627,0,12,5.373,12,12v320.999c0,6.627-5.373,12-12,12H-1"/>
<path fill="#27293E" d="M300.555,150c0-6.627,5.373-12,12-12h243c6.628,0,12,5.373,12,12v349c0,6.627-5.372,12-12,12h-243
	c-6.627,0-12-5.373-12-12V150z"/>
<path fill="#36374F" d="M310.555,160c0-6.627,5.373-12,12-12h223c6.628,0,12,5.373,12,12v319c0,6.627-5.372,12-12,12h-223
	c-6.627,0-12-5.373-12-12V160z"/>
<path fill="#43445E" d="M369.557,212c0-6.627-5.373-12-12-12H241.555c-6.627,0-12,5.373-12,12v241.001c0,6.627,5.373,12,12,12
	h116.001c6.627,0,12-5.373,12-12V212z"/>
<path fill="#53546F" d="M359.557,222c0-6.627-5.373-12-12-12h-96.001c-6.627,0-12,5.373-12,12v211.001c0,6.627,5.373,12,12,12
	h96.001c6.627,0,12-5.373,12-12V222z"/>
</svg>
